<svg width="32" height="32" viewBox="0 0 32 32" fill="none" xmlns="http://www.w3.org/2000/svg">
<rect width="32" height="32" rx="16" fill="#12231F"/>
<path d="M28 16.0643C28 16.186 27.9983 16.3076 27.9948 16.4293H27.9809H22.1582V16.1634H16.5406C16.5406 16.1078 16.5423 16.0521 16.5423 15.9983C16.5423 15.9444 16.5423 15.887 16.5406 15.8331H22.1582V15.5689H22.1669H27.9896C27.9965 15.7341 28 15.8992 28 16.0643ZM16.4415 14.8667L21.9392 14.1906L21.9722 14.4548L27.7775 13.7405C27.7219 13.4554 27.6558 13.1738 27.5811 12.8975L21.8662 13.6014L21.8992 13.8656L16.3754 14.5452C16.3998 14.653 16.4224 14.7607 16.4415 14.8702V14.8667ZM16.1547 13.803L21.409 12.4907L21.4734 12.748L27.0493 11.3557C26.9345 11.0863 26.8111 10.8204 26.679 10.5614L21.2665 11.9137L21.3308 12.1709L16.033 13.4954C16.0765 13.5979 16.1164 13.7005 16.1547 13.8048V13.803ZM15.6889 12.8071L20.6008 10.9525L20.6947 11.201L25.8917 9.23869C25.7231 8.99189 25.5458 8.75202 25.358 8.51914L20.3905 10.3946L20.4843 10.6431L15.5133 12.5203C15.5742 12.6141 15.6333 12.7097 15.6889 12.8071ZM15.044 11.8859L19.3824 9.62456L19.504 9.86095L24.3013 7.35979C24.0805 7.146 23.8511 6.94264 23.6147 6.74624L19.106 9.09616L19.2277 9.33256L14.8163 11.6321C14.8928 11.7155 14.9693 11.799 15.0423 11.8859H15.044ZM13.9977 10.8917L17.9258 8.39396L18.0684 8.61819L22.4032 5.86153C22.1304 5.68772 21.8523 5.52607 21.5655 5.37486L17.6078 7.89166L17.7503 8.11588L13.7091 10.6848C13.8082 10.7509 13.9038 10.8204 13.9994 10.8917H13.9977ZM13.0695 10.3111L16.3615 7.61182L16.5301 7.81694L20.2375 4.7752C19.9229 4.65527 19.5996 4.54751 19.2729 4.45365L15.9843 7.15122L16.1529 7.35632L12.741 10.1547C12.8523 10.2034 12.9618 10.2555 13.0695 10.3111ZM11.8407 9.83315L14.4409 7.24507L14.6269 7.43279L17.9311 4.14948C17.573 4.09038 17.2097 4.04693 16.8413 4.01912L14.0238 6.82271L14.2097 7.01043L11.4635 9.74276C11.5904 9.76884 11.7155 9.79837 11.8407 9.83315ZM10.4032 9.61586L12.4768 7.10255L12.6819 7.27115L15.3812 4C14.971 4.01912 14.5661 4.0591 14.168 4.11819L12.018 6.72364L12.2231 6.89224L9.97742 9.61415C10.04 9.61239 10.1043 9.61067 10.1669 9.61067C10.2468 9.61067 10.325 9.61067 10.4032 9.61415V9.61586ZM9.1605 9.69062L10.7578 7.21901L10.9803 7.36326L12.9114 4.3737C12.4699 4.48841 12.0388 4.62746 11.6182 4.78911L10.259 6.89398L10.4815 7.03824L8.71206 9.77754C8.8598 9.74276 9.00927 9.7132 9.1605 9.68886V9.69062ZM7.78041 10.0747L8.92931 7.92121L9.16223 8.04635L10.6831 5.19757C10.1947 5.43569 9.72537 5.7051 9.27693 6.00406L8.40268 7.64138L8.63733 7.76652L7.28506 10.3007C7.44497 10.219 7.61008 10.1443 7.77868 10.0765L7.78041 10.0747ZM6.78969 10.5805L7.2781 9.1935L7.52839 9.28217L8.47741 6.58807C7.99593 6.97045 7.54403 7.3876 7.12515 7.83777L6.71669 8.99711L6.96698 9.08575L6.32735 10.9003C6.47683 10.7874 6.62978 10.6813 6.78795 10.5823L6.78969 10.5805ZM5.57126 11.573L5.78679 10.5649L6.04577 10.6205L6.4803 8.59039C6.02317 9.17092 5.61819 9.79489 5.27231 10.4537L5.46524 10.4954L5.06895 12.164C5.22364 11.9571 5.39224 11.759 5.57126 11.573ZM4.67613 12.7514V11.4166C4.35284 12.27 4.12341 13.332 4 14.3731C4.15122 13.7961 4.38065 13.252 4.67613 12.7514ZM4.00869 17.6582C4.13557 18.5464 4.35805 19.4033 4.66744 20.2184V19.2329C4.38239 18.7463 4.15817 18.2179 4.00869 17.6582ZM5.11066 19.8917L5.45655 21.5046L5.26362 21.5464C5.6095 22.2068 6.01449 22.8291 6.47161 23.4096L6.03708 21.3795L5.7781 21.4351L5.5591 20.4149C5.40093 20.248 5.24971 20.0742 5.11066 19.8899V19.8917ZM6.31518 21.091L6.95828 22.916L6.70799 23.0047L7.11645 24.164C7.53535 24.6141 7.98725 25.0313 8.46873 25.4137L7.51971 22.7196L7.26942 22.8082L6.77926 21.4143C6.62109 21.3134 6.4664 21.2074 6.31692 21.0944L6.31518 21.091ZM7.27461 21.6941L8.63037 24.2352L8.39572 24.3604L9.26997 25.9977C9.71841 26.2967 10.1877 26.5661 10.6761 26.8042L9.15528 23.9554L8.92063 24.0806L7.76827 21.9218C7.59966 21.854 7.43452 21.7775 7.27288 21.6958L7.27461 21.6941ZM8.70161 22.219L10.4728 24.9618L10.2503 25.106L11.6095 27.2109C12.0301 27.3726 12.4612 27.5116 12.9027 27.6263L10.9716 24.6368L10.7491 24.781L9.15005 22.3059C8.99885 22.2816 8.84762 22.252 8.69988 22.2173L8.70161 22.219ZM9.96697 22.3859L12.2126 25.1078L12.0075 25.2764L14.1576 27.8818C14.5556 27.9409 14.9606 27.9809 15.3708 28L12.6715 24.7271L12.4664 24.8957L10.3928 22.3824C10.3181 22.3859 10.2416 22.3859 10.1651 22.3859C10.0991 22.3859 10.0313 22.3859 9.96524 22.3824L9.96697 22.3859ZM11.4565 22.2573L14.201 24.9878L14.0151 25.1756L16.8326 27.9792C17.2011 27.9513 17.5643 27.9079 17.9224 27.8488L14.6199 24.5638L14.4322 24.7532L11.8337 22.1669C11.7103 22.1999 11.5834 22.2312 11.4565 22.2573ZM12.7358 21.8488L16.1443 24.6454L15.9757 24.8505L19.2642 27.5481C19.591 27.4542 19.9143 27.3465 20.2289 27.2266L16.5197 24.1848L16.3511 24.3899L13.0626 21.6924C12.9548 21.748 12.8453 21.8001 12.7341 21.8488H12.7358ZM13.7022 21.3169L17.7381 23.8841L17.5956 24.1084L21.5533 26.6252C21.8401 26.4739 22.1199 26.3106 22.3911 26.1385L18.0562 23.3818L17.9137 23.606L13.9907 21.1118C13.8951 21.1831 13.7996 21.2526 13.7005 21.3187L13.7022 21.3169ZM14.8146 20.3714L19.2207 22.6675L19.0991 22.9038L23.6078 25.2538C23.8442 25.0574 24.0736 24.854 24.2943 24.6402L19.4971 22.1391L19.3754 22.3755L15.0423 20.1176C14.9693 20.2045 14.8945 20.2897 14.8163 20.3714H14.8146ZM15.5116 19.4815L20.4757 21.3569L20.3818 21.6054L25.3494 23.4809C25.5353 23.248 25.7126 23.0081 25.883 22.7613L20.686 20.799L20.5921 21.0475L15.6871 19.1947C15.6315 19.292 15.5724 19.3876 15.5116 19.4815ZM16.0313 18.5081L21.3204 19.8291L21.2561 20.0864L26.6686 21.4386C26.8025 21.1796 26.9258 20.9137 27.0406 20.6443L21.4647 19.252L21.4004 19.5093L16.1529 18.1987C16.1147 18.303 16.073 18.4056 16.0313 18.5081ZM16.3754 17.4583L21.8905 18.1362L21.8575 18.4004L27.5724 19.1043C27.6472 18.8262 27.7132 18.5446 27.7688 18.2613L21.9635 17.5469L21.9305 17.8111L16.4415 17.135C16.4224 17.2445 16.3998 17.3523 16.3754 17.46V17.4583Z" fill="white"/>
</svg>
